<svg xmlns="http://www.w3.org/2000/svg" viewBox="0 0 100 100" fill="none" stroke-linecap="round" stroke-linejoin="round">
  <defs>
    <linearGradient id="grad" x1="0" y1="0" x2="100" y2="100" gradientUnits="userSpaceOnUse">
      <stop offset="0" stop-color="#22d3ee"/>
      <stop offset="0.5" stop-color="#06b6d4"/>
      <stop offset="1" stop-color="#8b5cf6"/>
    </linearGradient>
  </defs>
  
  <!-- Outer Hexagon Ring -->
  <path d="M50 5 L90 27.5 L90 72.5 L50 95 L10 72.5 L10 27.5 Z" stroke="url(#grad)" stroke-width="4"/>
  
  <!-- Inner Connections (Neural Network) -->
  <!-- Connecting center to outer nodes -->
  <path d="M50 50 L50 20" stroke="url(#grad)" stroke-width="3"/>
  <path d="M50 50 L76 35" stroke="url(#grad)" stroke-width="3"/>
  <path d="M50 50 L76 65" stroke="url(#grad)" stroke-width="3"/>
  <path d="M50 50 L50 80" stroke="url(#grad)" stroke-width="3"/>
  <path d="M50 50 L24 65" stroke="url(#grad)" stroke-width="3"/>
  <path d="M50 50 L24 35" stroke="url(#grad)" stroke-width="3"/>
  
  <!-- Central Node -->
  <circle cx="50" cy="50" r="7" fill="url(#grad)"/>
  
  <!-- Outer Nodes -->
  <circle cx="50" cy="20" r="4" fill="white" stroke="url(#grad)" stroke-width="2"/>
  <circle cx="76" cy="35" r="4" fill="white" stroke="url(#grad)" stroke-width="2"/>
  <circle cx="76" cy="65" r="4" fill="white" stroke="url(#grad)" stroke-width="2"/>
  <circle cx="50" cy="80" r="4" fill="white" stroke="url(#grad)" stroke-width="2"/>
  <circle cx="24" cy="65" r="4" fill="white" stroke="url(#grad)" stroke-width="2"/>
  <circle cx="24" cy="35" r="4" fill="white" stroke="url(#grad)" stroke-width="2"/>
</svg>
